<svg width="14" height="14" viewBox="0 0 14 14" fill="none" xmlns="http://www.w3.org/2000/svg">
<path id="shape" fill-rule="evenodd" clip-rule="evenodd" d="M13.2544 11.4982L7.99675 1.4576C7.80254 1.08699 7.41869 0.854778 7.00028 0.854778C6.58187 0.854778 6.19802 1.08699 6.00381 1.4576L0.745562 11.4982C0.562881 11.847 0.575813 12.2659 0.779659 12.6027C0.983505 12.9395 1.3486 13.1453 1.74231 13.1452H12.2577C12.6514 13.1453 13.0165 12.9395 13.2203 12.6027C13.4242 12.2659 13.4371 11.847 13.2544 11.4982ZM6.4375 4.98618C6.4375 4.67552 6.68934 4.42368 7 4.42368C7.31066 4.42368 7.5625 4.67552 7.5625 4.98618V8.36118C7.5625 8.67184 7.31066 8.92368 7 8.92368C6.68934 8.92368 6.4375 8.67184 6.4375 8.36118V4.98618ZM7.01238 11.4605H7.02813C7.25149 11.4569 7.46397 11.3634 7.61748 11.2011C7.77099 11.0388 7.85256 10.8215 7.84375 10.5982C7.82564 10.1377 7.44735 9.77359 6.9865 9.77304H6.97075C6.74793 9.77712 6.53611 9.8706 6.38293 10.0325C6.22974 10.1943 6.14806 10.411 6.15625 10.6337C6.17374 11.0943 6.55145 11.4591 7.01238 11.4605Z" fill="#FF3654"/>
</svg>
