<svg width="20" height="22" viewBox="0 0 20 22" fill="none" xmlns="http://www.w3.org/2000/svg">
<path fill-rule="evenodd" clip-rule="evenodd" d="M0 6.81572H19.9018V5.98095H0V6.81572Z" fill="#FF3815"/>
<path fill-rule="evenodd" clip-rule="evenodd" d="M15.2469 8.33625H13.047V16.1409H11.9945V10.8454C11.9945 10.402 11.9691 10.1217 11.8865 9.84765C11.7271 9.29996 11.3569 8.71456 10.8916 8.47958C10.6107 8.33625 10.2857 8.27756 9.94773 8.27756C9.55264 8.27756 9.18244 8.3623 8.87031 8.55794C8.4555 8.81228 8.13664 9.36504 7.99024 9.89996C7.92016 10.1477 7.90093 10.4214 7.90093 10.8454V16.1409H6.84899V8.33625H4.64886V16.1409H3.6096L3.59661 8.33625H1.46676V16.1409H0.421055V8.33625H0V7.50148H19.9017V8.33625H19.4811V16.1409H18.4354V8.33625H16.2926V16.1409H15.2469V8.33625Z" fill="#FF3815"/>
<path fill-rule="evenodd" clip-rule="evenodd" d="M0.297364 4.68671L0.909519 3.85194L1.51543 4.68671L0.909519 5.52148L0.297364 4.68671Z" fill="#FF3815"/>
<path fill-rule="evenodd" clip-rule="evenodd" d="M3.07139 19.5348C3.42811 19.6914 3.73439 20.0698 3.73439 20.6175C3.73439 21.3219 3.35804 21.7717 2.87979 21.9087C2.5864 22 2.28062 22 2.00021 22H0.297158V17.2329H2.10201C2.32522 17.2329 2.57401 17.2392 2.8227 17.3046C3.25 17.4219 3.64508 17.7872 3.64508 18.459C3.64508 19.0785 3.30084 19.3784 3.07139 19.5024V19.5348ZM2.13363 19.3002C2.29985 19.3002 2.45249 19.2805 2.58015 19.2024C2.76501 19.098 2.89277 18.8763 2.89277 18.5437C2.89277 18.2176 2.73964 18.0023 2.51632 17.9243C2.40838 17.8786 2.27437 17.8653 2.10201 17.8653H1.03708V19.3002H2.13363ZM2.96285 20.6175C2.96285 20.2719 2.79722 20.0762 2.59938 19.9915C2.47172 19.9392 2.32522 19.9262 2.19756 19.9262H1.03708V21.3739H2.18507C2.32522 21.3739 2.45923 21.361 2.56776 21.3219C2.81645 21.2239 2.96285 20.9956 2.96285 20.6175Z" fill="#FF3815"/>
<path fill-rule="evenodd" clip-rule="evenodd" d="M3.95628 4.654C3.7969 4.59531 3.68212 4.44528 3.68212 4.26292C3.68212 4.03454 3.86073 3.85187 4.09029 3.85187C4.31351 3.85187 4.49212 4.03454 4.49212 4.26292C4.49212 4.44528 4.38358 4.59531 4.2242 4.64761L4.61314 5.45633H3.56734L3.95628 4.654Z" fill="#FF3815"/>
<path fill-rule="evenodd" clip-rule="evenodd" d="M9.63847 21.3021L9.14109 21.9998H4.46032L6.99825 17.2328H8.55431V21.3218L9.63847 21.3021ZM7.82737 21.3541V17.8131H7.34298L5.49977 21.3541H7.82737Z" fill="#FF3815"/>
<path fill-rule="evenodd" clip-rule="evenodd" d="M6.83899 5.39646H13.037V4.56169H6.83899V5.39646Z" fill="#FF3815"/>
<path fill-rule="evenodd" clip-rule="evenodd" d="M8.72175 3.8761H11.2343V3.04133H8.72175V3.8761Z" fill="#FF3815"/>
<path fill-rule="evenodd" clip-rule="evenodd" d="M9.01943 0.828383H10.8689V0H9.01943V0.828383Z" fill="#FF3815"/>
<path fill-rule="evenodd" clip-rule="evenodd" d="M9.21769 1.52051H10.5823L9.89993 2.45958L9.21769 1.52051Z" fill="#FF3815"/>
<path fill-rule="evenodd" clip-rule="evenodd" d="M14.5442 17.2328V22H13.8043V19.7891H11.4387V22H10.7051V17.2328H11.4387V19.137H13.8043V17.2328H14.5442Z" fill="#FF3815"/>
<path fill-rule="evenodd" clip-rule="evenodd" d="M15.6542 4.64761C15.4948 4.59531 15.3862 4.44528 15.3862 4.26292C15.3862 4.03454 15.5649 3.85187 15.7882 3.85187C16.0176 3.85187 16.1962 4.03454 16.1962 4.26292C16.1962 4.44528 16.0815 4.59531 15.9221 4.654L16.311 5.45633H15.2652L15.6542 4.64761Z" fill="#FF3815"/>
<path fill-rule="evenodd" clip-rule="evenodd" d="M17.7808 20.0564L16.4994 21.9998H15.7595L17.4304 19.5413L15.8363 17.2328H16.7226L17.8831 18.9153L18.9859 17.2328H19.7004L18.2274 19.4239L20 21.9998H19.1199L17.7808 20.0564Z" fill="#FF3815"/>
<path fill-rule="evenodd" clip-rule="evenodd" d="M18.3365 4.68669L18.9424 3.85192L19.5546 4.68669L18.9424 5.52146L18.3365 4.68669Z" fill="#FF3815"/>
</svg>
